<svg width="96" height="96" viewBox="0 0 96 96" fill="none" xmlns="http://www.w3.org/2000/svg">
<g clip-path="url(#clip0)">
<path d="M22.3165 82.3093C24.7976 84.3351 28.8052 85.8936 35.0469 84.84C35.0575 86.5259 35.0709 87.989 35.0816 89.1538C35.0921 90.2982 35.1 91.1548 35.1 91.6522C35.1 92.0652 34.9532 92.444 34.6926 92.6775C34.4646 92.8819 34.0004 93.1078 33.0646 92.9481C14.4208 86.8243 0.999992 69.5336 0.999992 49.1682C0.999992 23.6888 22.0159 3.00024 48 3.00024C73.9723 3.00024 95 23.6889 95 49.1682C95 69.503 81.5895 86.8058 62.8098 92.8889C61.8347 93.0638 61.3705 92.8331 61.1515 92.6366C60.8991 92.41 60.756 92.0356 60.756 91.6202C60.756 91.1182 60.7625 90.233 60.7712 89.0422C60.7757 88.4267 60.7808 87.7295 60.786 86.9614C60.801 84.7118 60.816 81.8633 60.816 78.7042C60.816 75.2151 59.8898 72.5423 58.6022 70.7303C63.4077 70.0432 68.3109 68.6473 72.1664 65.4744C76.5893 61.8346 79.476 55.9926 79.476 46.7082C79.476 41.5315 77.6795 37.2369 74.7025 33.8313C75.3484 31.9171 76.4052 27.2415 74.0054 21.1991L73.8298 20.757L73.3759 20.6143L73.076 21.5682C73.3759 20.6143 73.375 20.614 73.374 20.6137L73.372 20.6131L73.3676 20.6117L73.3578 20.6087L73.3336 20.6018C73.3154 20.5967 73.2932 20.5908 73.2669 20.5843C73.2142 20.5714 73.1454 20.5563 73.06 20.5412C72.8892 20.5109 72.6532 20.4806 72.35 20.4671C71.7429 20.44 70.872 20.4804 69.7222 20.7197C67.4871 21.185 64.2066 22.3999 59.7589 25.3219C55.9578 24.3279 51.9462 23.8358 47.9419 23.8123V23.8122L47.9301 23.8123C43.9251 23.8358 39.913 24.3281 36.1113 25.3223C31.6341 22.3995 28.3388 21.1847 26.0966 20.7196C24.9434 20.4804 24.0708 20.44 23.463 20.467C23.1594 20.4806 22.9231 20.5109 22.7522 20.5412C22.6668 20.5563 22.5979 20.5714 22.5452 20.5843C22.5189 20.5908 22.4967 20.5967 22.4785 20.6018L22.4542 20.6087L22.4444 20.6117L22.44 20.613L22.438 20.6137C22.437 20.614 22.436 20.6143 22.736 21.5682L22.436 20.6143L21.9822 20.757L21.8066 21.1991C19.415 27.2207 20.453 31.8937 21.1557 33.844C18.1675 37.2482 16.376 41.5388 16.376 46.7082C16.376 55.969 19.2589 61.8145 23.673 65.4672C27.5251 68.6548 32.4248 70.0697 37.2271 70.7678C36.353 72.0023 35.6578 73.6192 35.3008 75.6158C33.9644 76.144 31.9702 76.7064 29.8735 76.5221C27.5659 76.3193 25.053 75.2097 23.0845 71.8976L23.0794 71.8886C23.0758 71.8823 23.0714 71.8748 23.0664 71.8662C23.0617 71.8582 23.0565 71.8492 23.0506 71.8394C23.0264 71.7984 22.9919 71.7416 22.9473 71.671C22.8583 71.5299 22.7283 71.3333 22.5578 71.0989C22.2178 70.6312 21.7114 70.006 21.0403 69.3683C19.7043 68.0988 17.6577 66.7278 14.9359 66.5425L14.9084 66.5407L14.8808 66.5403L14.868 67.5402C14.8808 66.5403 14.8805 66.5403 14.8801 66.5403L14.8794 66.5403L14.8775 66.5403L14.8725 66.5402L14.8575 66.5402C14.8452 66.5401 14.8287 66.5402 14.8082 66.5403C14.7673 66.5407 14.7105 66.5416 14.6412 66.544C14.5036 66.5486 14.3124 66.5591 14.0967 66.5823C13.705 66.6246 13.0827 66.723 12.5818 67.0027C12.3218 67.1479 11.9973 67.3957 11.8144 67.8056C11.6163 68.2495 11.659 68.7122 11.8298 69.1142C11.9894 69.4899 12.2669 69.836 12.6034 70.161C12.9474 70.4932 13.4007 70.8485 13.9739 71.2341L14.0404 71.2787L14.1056 71.3088L14.1069 71.3094L14.1071 71.3095L14.1095 71.3106L14.1157 71.3138C14.128 71.3201 14.1515 71.3323 14.1852 71.3511C14.2527 71.3886 14.3608 71.4523 14.5018 71.547C14.7838 71.7364 15.1978 72.0497 15.6818 72.5257C16.6432 73.4713 17.894 75.0717 18.9314 77.6455L18.9315 77.6457C18.9397 77.6704 18.951 77.7036 18.9658 77.7447C18.9953 77.8268 19.0384 77.9404 19.0972 78.0803C19.2147 78.3598 19.3953 78.7456 19.6554 79.1944C20.1751 80.0909 21.0179 81.249 22.3165 82.3093Z" fill="black" stroke="white" stroke-width="2"/>
</g>
<defs>
<clipPath id="clip0">
<rect width="96" height="96" fill="white"/>
</clipPath>
</defs>
</svg>
