<svg width="96" height="96" viewBox="0 0 96 96" fill="none" xmlns="http://www.w3.org/2000/svg">
<path d="M28.8 82.6H29.8V81.6V38.4V37.4H28.8H14.4H13.4V38.4V81.6V82.6H14.4H28.8ZM81.6 82.6H82.6V81.6V54.24C82.6 44.5677 74.4723 36.44 64.8 36.44C62.4333 36.44 59.8671 37.2232 57.5944 38.4858C56.2098 39.255 54.9045 40.2186 53.8 41.3272V38.4V37.4H52.8H38.4H37.4V38.4V81.6V82.6H38.4H52.8H53.8V81.6V56.16C53.8 52.8725 56.7123 49.96 60 49.96C63.2877 49.96 66.2 52.8725 66.2 56.16V81.6V82.6H67.2H81.6ZM9.6 1H86.4C91.1277 1 95 4.87228 95 9.6V86.4C95 91.1277 91.1277 95 86.4 95H9.6C4.87228 95 1 91.1277 1 86.4V9.6C1 4.87228 4.87228 1 9.6 1ZM11.96 21.6C11.96 26.9523 16.2477 31.24 21.6 31.24C26.9523 31.24 31.24 26.9523 31.24 21.6C31.24 16.2477 26.9523 11.96 21.6 11.96C16.2477 11.96 11.96 16.2477 11.96 21.6Z" fill="black" stroke="#1563C2" stroke-width="2"/>
<rect x="1" y="1" width="94" height="94" rx="9" stroke="#1563C2" stroke-width="2"/>
</svg>
