<svg width="971" height="462" viewBox="0 0 971 462" fill="none" xmlns="http://www.w3.org/2000/svg">
<path fill-rule="evenodd" clip-rule="evenodd" d="M123.275 192.139C180.221 192.139 226.384 234.426 226.384 286.591C226.384 371.769 123.275 462 123.275 462C123.275 462 20.1651 372.526 20.1651 286.591C20.1651 234.426 66.3287 192.139 123.275 192.139V192.139Z" fill="#FFDAB8" fill-opacity="0.96"/>
<path d="M123.275 359.563C157.186 359.563 184.677 331.583 184.677 297.068C184.677 262.553 157.186 234.573 123.275 234.573C89.3639 234.573 61.8734 262.553 61.8734 297.068C61.8734 331.583 89.3639 359.563 123.275 359.563Z" fill="white"/>
<path d="M182.781 230.176C174.956 230.176 168.432 234.851 167.877 240.879L163.886 283.919C163.71 285.796 164.547 287.656 166.211 289.031C167.869 290.407 170.194 291.204 172.626 291.204H172.86L171.497 324.904C171.437 326.346 172.141 327.704 173.441 328.735C174.739 329.773 176.526 330.314 178.393 330.314H184.116C187.924 330.314 191.1 327.997 191.1 325.052V236.567C191.1 233.038 187.352 230.176 182.781 230.176Z" fill="#FF6F00"/>
<path d="M82.3112 231.502H81.7282C80.3355 231.502 79.2665 232.308 79.2665 233.388V252.355C79.2665 254.038 77.4396 255.414 75.2641 255.414H74.6784C72.5023 255.414 70.6586 254.038 70.6586 252.355V233.388C70.6586 232.31 69.609 231.502 68.2144 231.502H67.6226C66.2272 231.502 65.1181 232.308 65.1181 233.388V252.355C65.1181 254.038 63.334 255.414 61.1559 255.414H60.5721C58.3967 255.414 56.7098 254.038 56.7098 252.355V233.388C56.7098 232.31 55.5008 231.502 54.1054 231.502H53.5197C52.127 231.502 50.9696 232.308 50.9696 233.388V262.078C50.9696 265.607 54.6945 268.397 59.2633 268.397H60.3664L58.0334 326.146C57.9738 327.588 58.6742 328.952 59.975 329.988C61.2732 331.023 63.0626 331.573 64.9324 331.573H70.4327C72.2965 331.573 74.0866 331.023 75.3868 329.988C76.6876 328.95 77.3853 327.57 77.331 326.128L74.9981 268.395H76.5703C81.1417 268.395 84.8043 265.602 84.8043 262.075V233.386C84.7983 232.306 83.7119 231.502 82.3112 231.502V231.502Z" fill="#FF6F00"/>
<path d="M166.994 249.385C155.347 237.131 139.86 230.383 123.387 230.383C106.914 230.383 91.4277 237.131 79.7804 249.385C68.1331 261.639 61.718 277.931 61.718 295.261C61.718 312.591 68.1331 328.883 79.7804 341.137C91.4277 353.391 106.914 360.14 123.387 360.14C139.86 360.14 155.347 353.391 166.994 341.137C178.642 328.883 185.056 312.591 185.056 295.261C185.056 277.931 178.642 261.639 166.994 249.385V249.385ZM161.813 335.686C151.549 346.484 137.902 352.431 123.387 352.431C108.872 352.431 95.225 346.484 84.9616 335.686C74.6976 324.888 69.0452 310.531 69.0452 295.261C69.0452 279.991 74.6976 265.634 84.9616 254.836C95.2256 244.038 108.872 238.091 123.387 238.091C137.902 238.091 151.549 244.038 161.813 254.836C172.077 265.634 177.729 279.991 177.729 295.261C177.729 310.531 172.077 324.888 161.813 335.686V335.686Z" fill="#FF6F00" fill-opacity="0.59"/>
<path d="M124.121 255.581C103.72 255.581 87.1227 273.245 87.1227 294.958C87.1227 316.67 103.72 334.335 124.121 334.335C144.523 334.335 161.121 316.67 161.121 294.958C161.121 273.245 144.523 255.581 124.121 255.581ZM124.121 326.75C107.65 326.75 94.2495 312.488 94.2495 294.958C94.2495 277.427 107.65 263.166 124.121 263.166C140.593 263.166 153.994 277.428 153.994 294.958C153.994 312.489 140.593 326.75 124.121 326.75Z" fill="#FF6F00" fill-opacity="0.62"/>
<g filter="url(#filter0_d)">
<path d="M4 168.725L5.46169 112.489C5.86448 96.9656 11.5745 83.7301 22.5898 72.7837C33.6072 61.7632 46.6994 56.2529 61.8665 56.2529H116.81C126.969 56.2529 136.062 58.7244 144.089 63.6674C152.374 58.7244 161.595 56.2529 171.754 56.2529H226.697C241.865 56.2529 254.652 61.7632 265.061 72.7837C275.542 83.7672 280.582 97.002 280.18 112.489L278.718 168.725H223.775L225.236 112.489C225.437 104.764 222.908 98.1551 217.649 92.6633C212.428 87.1352 206.043 84.3708 198.495 84.3708C190.912 84.3708 184.365 87.1352 178.856 92.6633C173.348 98.1551 170.493 104.764 170.292 112.489L168.831 168.725H113.888L115.349 112.489C115.55 104.764 113.02 98.1551 107.762 92.6633C102.54 87.1352 96.155 84.3708 88.6073 84.3708C81.024 84.3708 74.4776 87.1352 68.9686 92.6633C63.4603 98.1551 60.6059 104.764 60.4048 112.489L58.9438 168.725H4V168.725Z" fill="#F3F2E9" stroke="#FF6F00" stroke-width="0.00162567" stroke-miterlimit="2" stroke-linejoin="round"/>
<path d="M340.531 168.725C325.329 168.725 312.522 163.233 302.112 152.249C291.667 141.266 286.645 128.013 287.048 112.489L288.51 56.2529H343.454L341.992 112.489C341.79 120.25 344.301 126.877 349.524 132.369C354.747 137.861 361.15 140.607 368.734 140.607C376.281 140.607 382.809 137.861 388.317 132.369C393.861 126.877 396.734 120.25 396.936 112.489L398.397 56.2529H453.341L451.88 112.489C451.475 128.049 445.748 141.302 434.696 152.249C423.679 163.233 410.606 168.725 395.475 168.725H340.531Z" fill="#F3F2E9" stroke="#FF6F00" stroke-width="0.00162567" stroke-miterlimit="2" stroke-linejoin="round"/>
<path d="M457.286 168.725L458.747 112.489C459.151 96.9656 464.861 83.7301 475.876 72.7837C486.893 61.7632 499.985 56.2529 515.153 56.2529H570.096C585.263 56.2529 598.051 61.7632 608.46 72.7837C618.942 83.7672 623.981 97.002 623.579 112.489L622.118 168.725H567.174L568.635 112.489C568.836 104.764 566.307 98.1551 561.048 92.6633C555.826 87.1352 549.441 84.3708 541.893 84.3708C534.31 84.3708 527.764 87.1352 522.255 92.6633C516.746 98.1551 513.892 104.764 513.691 112.489L512.23 168.725H457.286V168.725Z" fill="#F3F2E9" stroke="#FF6F00" stroke-width="0.00162567" stroke-miterlimit="2" stroke-linejoin="round"/>
<path d="M684.119 161.366H684.065H684.119ZM683.928 168.725C668.761 168.725 655.954 163.233 645.509 152.249C635.063 141.266 630.042 128.013 630.445 112.489C630.848 97.002 636.557 83.7672 647.574 72.7837C658.592 61.7632 671.683 56.2529 686.85 56.2529H796.737L796.007 84.3708H713.592C706.008 84.3708 699.462 87.1352 693.952 92.6633C688.444 98.1551 685.59 104.764 685.389 112.489C685.188 120.25 687.698 126.877 692.921 132.369C698.144 137.861 704.547 140.607 712.13 140.607H794.546L793.815 168.725H683.928Z" fill="#F3F2E9" stroke="#FF6F00" stroke-width="0.00162567" stroke-miterlimit="2" stroke-linejoin="round"/>
<path d="M800.685 168.707L803.608 56.2351C804.011 40.712 809.721 27.4765 820.737 16.5301C831.754 5.50957 844.846 0 860.013 0L858.552 56.2351H913.495C928.662 56.2351 941.45 61.7453 951.859 72.7659C962.341 83.7493 967.38 96.9841 966.978 112.471L965.517 168.707H910.573L912.034 112.471C912.235 104.746 909.705 98.1372 904.447 92.6455C899.225 87.1174 892.841 84.353 885.293 84.353C877.71 84.353 871.163 87.1174 865.654 92.6455C860.145 98.1372 857.291 104.746 857.091 112.471L855.629 168.707H800.685Z" fill="#F3F2E9" stroke="#FF6F00" stroke-width="0.00162567" stroke-miterlimit="2" stroke-linejoin="round"/>
</g>
<g filter="url(#filter1_d)">
<path d="M287.235 360.279L288.699 300.043C289.103 283.416 295.196 269.239 306.975 257.514C318.756 245.71 332.77 239.808 349.015 239.808H407.867C418.748 239.808 428.492 242.455 437.1 247.749C445.964 242.455 455.837 239.808 466.718 239.808H525.57C541.815 239.808 555.522 245.71 566.692 257.514C577.938 269.278 583.36 283.455 582.957 300.043L581.493 360.279H522.641L524.106 300.043C524.307 291.769 521.586 284.69 515.943 278.808C510.34 272.886 503.496 269.926 495.412 269.926C487.289 269.926 480.282 272.886 474.391 278.808C468.501 284.69 465.455 291.769 465.254 300.043L463.789 360.279H404.938L406.402 300.043C406.604 291.769 403.883 284.69 398.241 278.808C392.637 272.886 385.793 269.926 377.708 269.926C369.586 269.926 362.579 272.886 356.688 278.808C350.797 284.69 347.752 291.769 347.551 300.043L346.087 360.279H287.235Z" fill="#F3F2E9" stroke="#FF6F00" stroke-width="0.00162567" stroke-miterlimit="2" stroke-linejoin="round"/>
<path d="M647.896 352.397H647.838H647.896ZM647.704 360.279C631.459 360.279 617.732 354.396 606.523 342.631C595.314 330.906 589.912 316.71 590.317 300.043C590.72 283.455 596.812 269.278 608.592 257.514C620.335 245.71 634.349 239.808 650.633 239.808H709.484C725.691 239.808 739.399 245.71 750.606 257.514C761.854 269.239 767.276 283.416 766.871 300.043L765.407 360.279H706.556L708.02 300.043C708.221 291.769 705.5 284.69 699.858 278.808C694.255 272.886 687.41 269.926 679.327 269.926C671.204 269.926 664.197 272.886 658.305 278.808C652.415 284.69 649.37 291.769 649.169 300.043C648.966 308.357 651.668 315.455 657.272 321.337C662.876 327.22 669.74 330.161 677.862 330.161L677.13 360.279H647.704V360.279Z" fill="#F3F2E9" stroke="#FF6F00" stroke-width="0.00162567" stroke-miterlimit="2" stroke-linejoin="round"/>
<path d="M830.149 420.514C813.865 420.514 800.138 414.612 788.969 402.808C777.761 391.044 772.358 376.867 772.761 360.279L774.226 300.043C774.63 283.416 780.722 269.239 792.501 257.514C804.283 245.71 818.296 239.808 834.541 239.808H893.393C909.638 239.808 923.346 245.71 934.515 257.514C945.762 269.278 951.184 283.455 950.78 300.043C950.375 316.71 944.264 330.906 932.446 342.631C920.666 354.396 906.671 360.279 890.464 360.279H861.039L861.771 330.161C869.855 330.161 876.842 327.22 882.733 321.337C888.661 315.455 891.727 308.357 891.929 300.043C892.13 291.769 889.409 284.69 883.767 278.808C878.163 272.886 871.319 269.926 863.235 269.926C855.112 269.926 848.105 272.886 842.214 278.808C836.324 284.69 833.279 291.769 833.077 300.043L831.613 360.279C831.412 368.553 834.093 375.651 839.659 381.573C845.301 387.455 852.184 390.396 860.307 390.396L830.149 420.514V420.514Z" fill="#F3F2E9" stroke="#FF6F00" stroke-width="0.00162567" stroke-miterlimit="2" stroke-linejoin="round"/>
</g>
<defs>
<filter id="filter0_d" x="-0.000793457" y="-0.000793457" width="971.001" height="176.757" filterUnits="userSpaceOnUse" color-interpolation-filters="sRGB">
<feFlood flood-opacity="0" result="BackgroundImageFix"/>
<feColorMatrix in="SourceAlpha" type="matrix" values="0 0 0 0 0 0 0 0 0 0 0 0 0 0 0 0 0 0 127 0"/>
<feOffset dy="4"/>
<feGaussianBlur stdDeviation="2"/>
<feColorMatrix type="matrix" values="0 0 0 0 0 0 0 0 0 0 0 0 0 0 0 0 0 0 0.25 0"/>
<feBlend mode="normal" in2="BackgroundImageFix" result="effect1_dropShadow"/>
<feBlend mode="normal" in="SourceGraphic" in2="effect1_dropShadow" result="shape"/>
</filter>
<filter id="filter1_d" x="283.234" y="239.807" width="671.568" height="188.708" filterUnits="userSpaceOnUse" color-interpolation-filters="sRGB">
<feFlood flood-opacity="0" result="BackgroundImageFix"/>
<feColorMatrix in="SourceAlpha" type="matrix" values="0 0 0 0 0 0 0 0 0 0 0 0 0 0 0 0 0 0 127 0"/>
<feOffset dy="4"/>
<feGaussianBlur stdDeviation="2"/>
<feColorMatrix type="matrix" values="0 0 0 0 0 0 0 0 0 0 0 0 0 0 0 0 0 0 0.25 0"/>
<feBlend mode="normal" in2="BackgroundImageFix" result="effect1_dropShadow"/>
<feBlend mode="normal" in="SourceGraphic" in2="effect1_dropShadow" result="shape"/>
</filter>
</defs>
</svg>
