<svg width="36" height="36" viewBox="0 0 36 36" fill="none" xmlns="http://www.w3.org/2000/svg">
<path fill-rule="evenodd" clip-rule="evenodd" d="M17.8618 0.923401C25.2451 0.923401 31.2304 6.27996 31.2304 12.8881C31.2304 23.6781 17.8618 35.1081 17.8618 35.1081C17.8618 35.1081 4.49316 23.774 4.49316 12.8881C4.49316 6.27996 10.4785 0.923401 17.8618 0.923401Z" fill="#FFDAB8" fill-opacity="0.96"/>
<path d="M17.8618 22.1341C22.2585 22.1341 25.8228 18.5897 25.8228 14.2175C25.8228 9.84524 22.2585 6.30085 17.8618 6.30085C13.465 6.30085 9.90076 9.84524 9.90076 14.2175C9.90076 18.5897 13.465 22.1341 17.8618 22.1341Z" fill="white"/>
<path d="M25.5771 5.74191C24.5626 5.74191 23.7167 6.33406 23.6448 7.09767L23.1274 12.5498C23.1044 12.7876 23.213 13.0231 23.4287 13.1973C23.6437 13.3716 23.945 13.4726 24.2605 13.4726H24.2909L24.1141 17.7415C24.1063 17.9242 24.1975 18.0962 24.3661 18.2268C24.5344 18.3583 24.7661 18.4268 25.0081 18.4268H25.7502C26.2439 18.4268 26.6557 18.1334 26.6557 17.7603V6.55139C26.6557 6.10441 26.1698 5.74191 25.5771 5.74191Z" fill="#FF6F00"/>
<path d="M12.5508 5.91085H12.4752C12.2947 5.91085 12.1561 6.01295 12.1561 6.14972V8.55245C12.1561 8.76559 11.9192 8.93985 11.6371 8.93985H11.5612C11.2791 8.93985 11.04 8.76559 11.04 8.55245V6.14972C11.04 6.01323 10.904 5.91085 10.7231 5.91085H10.6464C10.4655 5.91085 10.3217 6.01295 10.3217 6.14972V8.55245C10.3217 8.76559 10.0904 8.93985 9.80792 8.93985H9.7323C9.45023 8.93985 9.23154 8.76559 9.23154 8.55245V6.14972C9.23154 6.01323 9.07475 5.91085 8.89386 5.91085H8.81788C8.63736 5.91085 8.48724 6.01295 8.48724 6.14972V9.78402C8.48724 10.231 8.97022 10.5846 9.56254 10.5846H9.70562L9.40315 17.8999C9.39537 18.0825 9.48618 18.2554 9.65484 18.3866C9.82312 18.5178 10.0552 18.5874 10.2976 18.5874H11.0107C11.2524 18.5874 11.4844 18.5178 11.6531 18.3866C11.8217 18.2551 11.9122 18.0803 11.9051 17.8976L11.6027 10.5843H11.8065C12.3992 10.5843 12.8741 10.2304 12.8741 9.78374V6.14944C12.8733 6.01267 12.7325 5.91085 12.5508 5.91085Z" fill="#FF6F00"/>
<path d="M23.5313 8.17571C22.0212 6.62344 20.0132 5.76855 17.8775 5.76855C15.7418 5.76855 13.7339 6.6234 12.2237 8.17571C10.7135 9.72799 9.88184 11.7918 9.88184 13.9871C9.88184 16.1823 10.7135 18.2462 12.2237 19.7985C13.7339 21.3507 15.7418 22.2056 17.8775 22.2056C20.0133 22.2056 22.0212 21.3507 23.5313 19.7984C25.0415 18.2462 25.8732 16.1823 25.8732 13.9871C25.8732 11.7918 25.0415 9.72796 23.5313 8.17571ZM22.8596 19.1079C21.5288 20.4758 19.7595 21.2291 17.8775 21.2291C15.9956 21.2291 14.2262 20.4758 12.8955 19.1079C11.5647 17.7401 10.8319 15.9215 10.8319 13.9871C10.8319 12.0526 11.5647 10.234 12.8955 8.8662C14.2262 7.49839 15.9956 6.74504 17.8775 6.74504C19.7595 6.74504 21.5288 7.49836 22.8596 8.86617C24.1903 10.234 24.9232 12.0526 24.9232 13.9871C24.9232 15.9215 24.1903 17.7401 22.8596 19.1079Z" fill="#FF6F00" fill-opacity="0.59"/>
<path d="M17.9718 8.95969C15.3266 8.95969 13.1747 11.1973 13.1747 13.9478C13.1747 16.6982 15.3266 18.9359 17.9718 18.9359C20.6169 18.9359 22.7688 16.6983 22.7688 13.9478C22.7688 11.1974 20.6169 8.95969 17.9718 8.95969ZM17.9718 17.9751C15.8361 17.9751 14.0987 16.1685 14.0987 13.9478C14.0987 11.7271 15.8361 9.92053 17.9718 9.92053C20.1074 9.92053 21.8448 11.7271 21.8448 13.9478C21.8448 16.1685 20.1074 17.9751 17.9718 17.9751Z" fill="#FF6F00" fill-opacity="0.62"/>
</svg>
