<?xml version="1.0" encoding="utf-8"?>
<svg viewBox="-4 0 36 36" xmlns="http://www.w3.org/2000/svg">
  <g id="Vivid.JS" stroke="none" stroke-width="1" fill="none" fill-rule="evenodd" transform="matrix(0.9549, 0, 0, 0.949576, 2.886113, 0.64612)" style="">
    <g id="Vivid-Icons" transform="translate(-125.000000, -643.000000)">
      <g id="Icons" transform="translate(37.000000, 169.000000)">
        <g id="map-marker" transform="translate(78.000000, 468.000000)">
          <g transform="translate(10.000000, 6.000000)">
            <path d="M 11.494 0.292 C 19.226 0.292 25.494 5.933 25.494 12.892 C 25.494 24.255 11.494 36.292 11.494 36.292 C 11.494 36.292 -2.506 24.356 -2.506 12.892 C -2.506 5.933 3.762 0.292 11.494 0.292 Z" id="Shape" style="fill: rgba(255, 218, 184, 0.96);"/>
            <circle id="Oval" fill-rule="nonzero" cx="11.494" cy="14.292" r="8.337" style="fill: rgb(255, 255, 255);"/>
            <title>map-marker</title>
            <desc>Created with Sketch.</desc>
          </g>
        </g>
      </g>
    </g>
  </g>
  <g transform="matrix(0.370664, 0, 0, 0.279712, 5.419092, 7.938482)" style="">
    <g>
      <path d="M 43.592 -7.853 C 40.855 -7.853 38.573 -5.736 38.379 -3.006 L 36.983 16.486 C 36.921 17.336 37.214 18.178 37.796 18.801 C 38.376 19.424 39.189 19.785 40.04 19.785 L 40.122 19.785 L 39.645 35.047 C 39.624 35.7 39.87 36.315 40.325 36.782 C 40.779 37.252 41.404 37.497 42.057 37.497 L 44.059 37.497 C 45.391 37.497 46.502 36.448 46.502 35.114 L 46.502 -4.959 C 46.502 -6.557 45.191 -7.853 43.592 -7.853 Z" style="fill: rgb(255, 111, 0);"/>
      <path d="M 8.449 -7.249 L 8.245 -7.249 C 7.758 -7.249 7.384 -6.884 7.384 -6.395 L 7.384 2.195 C 7.384 2.957 6.745 3.58 5.984 3.58 L 5.779 3.58 C 5.018 3.58 4.373 2.957 4.373 2.195 L 4.373 -6.395 C 4.373 -6.883 4.006 -7.249 3.518 -7.249 L 3.311 -7.249 C 2.823 -7.249 2.435 -6.884 2.435 -6.395 L 2.435 2.195 C 2.435 2.957 1.811 3.58 1.049 3.58 L 0.845 3.58 C 0.084 3.58 -0.506 2.957 -0.506 2.195 L -0.506 -6.395 C -0.506 -6.883 -0.929 -7.249 -1.417 -7.249 L -1.622 -7.249 C -2.109 -7.249 -2.514 -6.884 -2.514 -6.395 L -2.514 6.598 C -2.514 8.196 -1.211 9.46 0.387 9.46 L 0.773 9.46 L -0.043 35.613 C -0.064 36.266 0.181 36.884 0.636 37.353 C 1.09 37.822 1.716 38.071 2.37 38.071 L 4.294 38.071 C 4.946 38.071 5.572 37.822 6.027 37.353 C 6.482 36.883 6.726 36.258 6.707 35.605 L 5.891 9.459 L 6.441 9.459 C 8.04 9.459 9.321 8.194 9.321 6.597 L 9.321 -6.396 C 9.319 -6.885 8.939 -7.249 8.449 -7.249 Z" style="fill: rgb(255, 111, 0);"/>
      <g transform="matrix(0.084263, 0, 0, 0.114774, 1.245679, -7.757762)" style="">
        <g>
          <path d="M437.019,74.981C388.668,26.629,324.38,0,256,0S123.332,26.628,74.981,74.981C26.63,123.333,0.001,187.619,0.001,255.999 S26.63,388.668,74.981,437.02C123.332,485.371,187.62,512,256,512c68.381,0,132.668-26.63,181.019-74.982 s74.98-112.639,74.98-181.019S485.37,123.332,437.019,74.981z M415.511,415.51c-42.606,42.606-99.256,66.071-159.511,66.071 S139.095,458.117,96.489,415.51s-66.071-99.256-66.071-159.511S53.882,139.095,96.489,96.489S195.745,30.417,256,30.417 c60.255,0,116.905,23.465,159.511,66.071s66.071,99.256,66.071,159.511S458.117,372.904,415.511,415.51z" style="fill: rgba(255, 111, 0, 0.59);"/>
        </g>
      </g>
      <g transform="matrix(0.081956, 0, 0, 0.11293, 2.093046, -7.426054)" style="">
        <g>
          <path d="M256,98.087c-87.073,0-157.912,70.839-157.912,157.912S168.927,413.912,256,413.912s157.912-70.839,157.912-157.912 S343.073,98.087,256,98.087z M256,383.494c-70.301,0-127.495-57.193-127.495-127.495S185.699,128.505,256,128.505 s127.495,57.193,127.495,127.495S326.301,383.494,256,383.494z" style="fill: rgba(255, 111, 0, 0.62);"/>
        </g>
      </g>
      <g transform="matrix(0.081956, 0, 0, 0.11293, 2.093046, -7.426054)" style=""/>
      <g transform="matrix(0.081956, 0, 0, 0.11293, 2.093046, -7.426054)" style=""/>
      <g transform="matrix(0.081956, 0, 0, 0.11293, 2.093046, -7.426054)" style=""/>
      <g transform="matrix(0.081956, 0, 0, 0.11293, 2.093046, -7.426054)" style=""/>
      <g transform="matrix(0.081956, 0, 0, 0.11293, 2.093046, -7.426054)" style=""/>
      <g transform="matrix(0.081956, 0, 0, 0.11293, 2.093046, -7.426054)" style=""/>
      <g transform="matrix(0.081956, 0, 0, 0.11293, 2.093046, -7.426054)" style=""/>
      <g transform="matrix(0.081956, 0, 0, 0.11293, 2.093046, -7.426054)" style=""/>
      <g transform="matrix(0.081956, 0, 0, 0.11293, 2.093046, -7.426054)" style=""/>
      <g transform="matrix(0.081956, 0, 0, 0.11293, 2.093046, -7.426054)" style=""/>
      <g transform="matrix(0.081956, 0, 0, 0.11293, 2.093046, -7.426054)" style=""/>
      <g transform="matrix(0.081956, 0, 0, 0.11293, 2.093046, -7.426054)" style=""/>
      <g transform="matrix(0.081956, 0, 0, 0.11293, 2.093046, -7.426054)" style=""/>
      <g transform="matrix(0.081956, 0, 0, 0.11293, 2.093046, -7.426054)" style=""/>
      <g transform="matrix(0.081956, 0, 0, 0.11293, 2.093046, -7.426054)" style=""/>
    </g>
  </g>
</svg>