<svg width="30" height="30" viewBox="0 0 30 30" fill="none" xmlns="http://www.w3.org/2000/svg">
<path fill-rule="evenodd" clip-rule="evenodd" d="M14.8848 0.769501C21.0376 0.769501 26.0253 5.2333 26.0253 10.74C26.0253 19.7317 14.8848 29.2568 14.8848 29.2568C14.8848 29.2568 3.74432 19.8117 3.74432 10.74C3.74432 5.2333 8.73208 0.769501 14.8848 0.769501Z" fill="#FFDAB8" fill-opacity="0.96"/>
<path d="M14.8848 18.4451C18.5488 18.4451 21.519 15.4914 21.519 11.8479C21.519 8.20437 18.5488 5.25071 14.8848 5.25071C11.2209 5.25071 8.25067 8.20437 8.25067 11.8479C8.25067 15.4914 11.2209 18.4451 14.8848 18.4451Z" fill="white"/>
<path d="M21.3142 4.78492C20.4688 4.78492 19.7639 5.27838 19.704 5.91472L19.2728 10.4582C19.2536 10.6563 19.3441 10.8526 19.5239 10.9978C19.7031 11.143 19.9542 11.2272 20.2171 11.2272H20.2424L20.095 14.7846C20.0886 14.9368 20.1645 15.0802 20.3051 15.189C20.4453 15.2986 20.6384 15.3557 20.8401 15.3557H21.4585C21.8699 15.3557 22.2131 15.1112 22.2131 14.8002V5.45949C22.2131 5.08701 21.8081 4.78492 21.3142 4.78492Z" fill="#FF6F00"/>
<path d="M10.459 4.9257H10.396C10.2456 4.9257 10.1301 5.01078 10.1301 5.12477V7.12704C10.1301 7.30466 9.93267 7.44987 9.69761 7.44987H9.63429C9.39923 7.44987 9.2 7.30466 9.2 7.12704V5.12477C9.2 5.01102 9.08663 4.9257 8.9359 4.9257H8.87196C8.72122 4.9257 8.60137 5.01078 8.60137 5.12477V7.12704C8.60137 7.30466 8.40863 7.44987 8.17326 7.44987H8.11024C7.87518 7.44987 7.69294 7.30466 7.69294 7.12704V5.12477C7.69294 5.01102 7.56228 4.9257 7.41154 4.9257H7.34822C7.19779 4.9257 7.07269 5.01078 7.07269 5.12477V8.15335C7.07269 8.52583 7.47517 8.82046 7.96877 8.82046H8.088L7.83595 14.9166C7.82947 15.0688 7.90514 15.2128 8.04569 15.3221C8.18592 15.4315 8.37928 15.4895 8.5813 15.4895H9.17559C9.37699 15.4895 9.57035 15.4315 9.71089 15.3221C9.85144 15.2126 9.92681 15.0669 9.92094 14.9147L9.66889 8.82023H9.83877C10.3327 8.82023 10.7284 8.52537 10.7284 8.15312V5.12453C10.7277 5.01055 10.6104 4.9257 10.459 4.9257Z" fill="#FF6F00"/>
<path d="M19.6094 6.81309C18.351 5.51953 16.6777 4.80712 14.8979 4.80712C13.1182 4.80712 11.4449 5.5195 10.1864 6.81309C8.92796 8.10666 8.23486 9.8265 8.23486 11.6559C8.23486 13.4853 8.92796 15.2052 10.1864 16.4987C11.4449 17.7923 13.1182 18.5047 14.8979 18.5047C16.6777 18.5047 18.351 17.7923 19.6094 16.4987C20.8679 15.2051 21.561 13.4853 21.561 11.6559C21.561 9.8265 20.8679 8.10663 19.6094 6.81309ZM19.0496 15.9233C17.9407 17.0631 16.4662 17.6909 14.8979 17.6909C13.3296 17.6909 11.8552 17.0632 10.7462 15.9233C9.63729 14.7834 9.02655 13.2679 9.02655 11.6559C9.02655 10.0439 9.63726 8.52834 10.7462 7.3885C11.8552 6.24866 13.3296 5.62087 14.8979 5.62087C16.4662 5.62087 17.9407 6.24863 19.0496 7.38847C20.1586 8.52831 20.7693 10.0439 20.7693 11.6559C20.7693 13.2679 20.1586 14.7834 19.0496 15.9233Z" fill="#FF6F00" fill-opacity="0.59"/>
<path d="M14.9764 7.46641C12.7722 7.46641 10.9789 9.33112 10.9789 11.6232C10.9789 13.9152 12.7722 15.7799 14.9764 15.7799C17.1807 15.7799 18.974 13.9152 18.974 11.6232C18.974 9.33114 17.1807 7.46641 14.9764 7.46641ZM14.9764 14.9792C13.1968 14.9792 11.7489 13.4737 11.7489 11.6232C11.7489 9.77259 13.1968 8.26711 14.9764 8.26711C16.7561 8.26711 18.204 9.77261 18.204 11.6232C18.204 13.4738 16.7561 14.9792 14.9764 14.9792Z" fill="#FF6F00" fill-opacity="0.62"/>
</svg>
