<svg width="46" height="46" viewBox="0 0 46 46" fill="none" xmlns="http://www.w3.org/2000/svg">
<path d="M22.8234 1.92993C31.9238 1.92993 39.1555 8.51473 39.1555 16.4681C39.1555 23.0907 35.0305 30.0149 30.7772 35.3679C28.6652 38.026 26.5513 40.2601 24.9649 41.8298C24.1722 42.6143 23.5123 43.2317 23.0518 43.652C22.9683 43.7281 22.8914 43.7978 22.8214 43.8609C22.752 43.7987 22.6757 43.7301 22.5929 43.6551C22.1325 43.238 21.4728 42.625 20.6802 41.8455C19.0941 40.2855 16.9806 38.0631 14.8689 35.4131C10.617 30.0771 6.49127 23.1525 6.49127 16.4681C6.49127 8.51473 13.723 1.92993 22.8234 1.92993Z" fill="#FFDAB8" fill-opacity="0.96" stroke="#FE7000" stroke-width="1.5"/>
<path d="M32.2458 18.1668C32.2458 23.3354 28.0312 27.5325 22.8234 27.5325C17.6156 27.5325 13.401 23.3354 13.401 18.1668C13.401 12.9983 17.6156 8.80115 22.8234 8.80115C28.0312 8.80115 32.2458 12.9983 32.2458 18.1668Z" fill="white" stroke="#FE7000" stroke-width="1.5"/>
<path d="M32.6819 7.33691C31.3855 7.33691 30.3047 8.09355 30.2128 9.06928L29.5517 16.0359C29.5223 16.3397 29.6611 16.6406 29.9367 16.8633C30.2114 17.086 30.5965 17.215 30.9995 17.215H31.0384L30.8125 22.6698C30.8025 22.9032 30.919 23.123 31.1345 23.2899C31.3495 23.4579 31.6456 23.5454 31.9548 23.5454H32.903C33.5339 23.5454 34.0601 23.1705 34.0601 22.6937V8.37126C34.0601 7.80012 33.4392 7.33691 32.6819 7.33691Z" fill="#FF6F00"/>
<path d="M16.0372 7.55273H15.9406C15.7099 7.55273 15.5328 7.68319 15.5328 7.85796V10.9281C15.5328 11.2005 15.2302 11.4231 14.8697 11.4231H14.7726C14.4122 11.4231 14.1067 11.2005 14.1067 10.9281V7.85796C14.1067 7.68355 13.9329 7.55273 13.7018 7.55273H13.6037C13.3726 7.55273 13.1888 7.68319 13.1888 7.85796V10.9281C13.1888 11.2005 12.8933 11.4231 12.5324 11.4231H12.4358C12.0753 11.4231 11.7959 11.2005 11.7959 10.9281V7.85796C11.7959 7.68355 11.5955 7.55273 11.3644 7.55273H11.2673C11.0367 7.55273 10.8448 7.68319 10.8448 7.85796V12.5018C10.8448 13.0729 11.462 13.5247 12.2188 13.5247H12.4017L12.0152 22.872C12.0052 23.1054 12.1213 23.3263 12.3368 23.4939C12.5518 23.6616 12.8483 23.7506 13.158 23.7506H14.0693C14.3781 23.7506 14.6746 23.6616 14.8901 23.4939C15.1056 23.3259 15.2212 23.1026 15.2122 22.8692L14.8257 13.5243H15.0862C15.8435 13.5243 16.4502 13.0722 16.4502 12.5014V7.85761C16.4493 7.68283 16.2693 7.55273 16.0372 7.55273Z" fill="#FF6F00"/>
<path d="M30.0679 10.4468C28.1382 8.46333 25.5725 7.37097 22.8435 7.37097C20.1145 7.37097 17.5489 8.46329 15.6192 10.4468C13.6896 12.4303 12.6268 15.0674 12.6268 17.8724C12.6268 20.6774 13.6896 23.3147 15.6192 25.2981C17.5489 27.2815 20.1145 28.3739 22.8435 28.3739C25.5726 28.3739 28.1382 27.2815 30.0679 25.298C31.9975 23.3146 33.0602 20.6774 33.0602 17.8724C33.0602 15.0674 31.9975 12.4302 30.0679 10.4468ZM29.2095 24.4158C27.5091 26.1635 25.2483 27.1261 22.8435 27.1261C20.4388 27.1261 18.178 26.1636 16.4776 24.4158C14.7772 22.668 13.8407 20.3441 13.8407 17.8724C13.8407 15.4007 14.7772 13.0768 16.4776 11.3291C18.178 9.58133 20.4388 8.61872 22.8435 8.61872C25.2483 8.61872 27.5091 9.58128 29.2095 11.329C30.9099 13.0768 31.8463 15.4007 31.8463 17.8724C31.8463 20.3441 30.9099 22.668 29.2095 24.4158Z" fill="#FF6F00" fill-opacity="0.59"/>
<path d="M22.9639 11.4485C19.5841 11.4485 16.8344 14.3077 16.8344 17.8222C16.8344 21.3366 19.5841 24.1959 22.9639 24.1959C26.3438 24.1959 29.0935 21.3367 29.0935 17.8222C29.0935 14.3077 26.3438 11.4485 22.9639 11.4485ZM22.9639 22.9682C20.2351 22.9682 18.015 20.6597 18.015 17.8222C18.015 14.9846 20.2351 12.6762 22.9639 12.6762C25.6928 12.6762 27.9129 14.9847 27.9129 17.8222C27.9129 20.6598 25.6928 22.9682 22.9639 22.9682Z" fill="#FF6F00" fill-opacity="0.62"/>
</svg>
