<svg width="46" height="46" viewBox="0 0 46 46" fill="none" xmlns="http://www.w3.org/2000/svg">
<path fill-rule="evenodd" clip-rule="evenodd" d="M22.8234 1.1799C32.2576 1.1799 39.9055 8.02439 39.9055 16.4681C39.9055 30.2553 22.8234 44.8604 22.8234 44.8604C22.8234 44.8604 5.74127 30.3779 5.74127 16.4681C5.74127 8.02439 13.3892 1.1799 22.8234 1.1799Z" fill="#FFDAB8" fill-opacity="0.96"/>
<path d="M22.8234 28.2824C28.4415 28.2824 32.9958 23.7535 32.9958 18.1668C32.9958 12.58 28.4415 8.05109 22.8234 8.05109C17.2053 8.05109 12.651 12.58 12.651 18.1668C12.651 23.7535 17.2053 28.2824 22.8234 28.2824Z" fill="white"/>
<path d="M32.6819 7.33688C31.3855 7.33688 30.3047 8.09351 30.2128 9.06924L29.5517 16.0359C29.5223 16.3397 29.6611 16.6406 29.9367 16.8633C30.2114 17.0859 30.5965 17.215 30.9995 17.215H31.0384L30.8125 22.6698C30.8025 22.9031 30.919 23.1229 31.1345 23.2899C31.3495 23.4578 31.6456 23.5454 31.9548 23.5454H32.903C33.5339 23.5454 34.0601 23.1705 34.0601 22.6937V8.37122C34.0601 7.80008 33.4392 7.33688 32.6819 7.33688Z" fill="#FF6F00"/>
<path d="M16.0372 7.55275H15.9406C15.7099 7.55275 15.5328 7.6832 15.5328 7.85798V10.9281C15.5328 11.2005 15.2302 11.4231 14.8697 11.4231H14.7726C14.4122 11.4231 14.1067 11.2005 14.1067 10.9281V7.85798C14.1067 7.68356 13.9329 7.55275 13.7018 7.55275H13.6037C13.3726 7.55275 13.1888 7.6832 13.1888 7.85798V10.9281C13.1888 11.2005 12.8933 11.4231 12.5324 11.4231H12.4358C12.0753 11.4231 11.7959 11.2005 11.7959 10.9281V7.85798C11.7959 7.68356 11.5955 7.55275 11.3644 7.55275H11.2673C11.0367 7.55275 10.8448 7.6832 10.8448 7.85798V12.5018C10.8448 13.0729 11.462 13.5247 12.2188 13.5247H12.4017L12.0152 22.8721C12.0052 23.1054 12.1213 23.3263 12.3368 23.4939C12.5518 23.6616 12.8483 23.7506 13.158 23.7506H14.0693C14.3781 23.7506 14.6746 23.6616 14.8901 23.4939C15.1056 23.326 15.2212 23.1026 15.2122 22.8692L14.8257 13.5244H15.0862C15.8435 13.5244 16.4502 13.0722 16.4502 12.5014V7.85762C16.4493 7.68285 16.2693 7.55275 16.0372 7.55275Z" fill="#FF6F00"/>
<path d="M30.0679 10.4467C28.1382 8.46328 25.5725 7.37092 22.8435 7.37092C20.1145 7.37092 17.5489 8.46323 15.6192 10.4467C13.6896 12.4302 12.6268 15.0673 12.6268 17.8723C12.6268 20.6774 13.6896 23.3146 15.6192 25.2981C17.5489 27.2815 20.1145 28.3739 22.8435 28.3739C25.5726 28.3739 28.1382 27.2815 30.0679 25.298C31.9975 23.3145 33.0602 20.6774 33.0602 17.8723C33.0602 15.0673 31.9975 12.4302 30.0679 10.4467ZM29.2095 24.4157C27.5091 26.1635 25.2483 27.126 22.8435 27.126C20.4388 27.126 18.178 26.1635 16.4776 24.4157C14.7772 22.6679 13.8407 20.3441 13.8407 17.8723C13.8407 15.4006 14.7772 13.0768 16.4776 11.329C18.178 9.58127 20.4388 8.61866 22.8435 8.61866C25.2483 8.61866 27.5091 9.58123 29.2095 11.329C30.9099 13.0767 31.8463 15.4006 31.8463 17.8723C31.8463 20.3441 30.9099 22.6679 29.2095 24.4157Z" fill="#FF6F00" fill-opacity="0.59"/>
<path d="M22.9639 11.4485C19.5841 11.4485 16.8344 14.3077 16.8344 17.8222C16.8344 21.3366 19.5841 24.1959 22.9639 24.1959C26.3438 24.1959 29.0935 21.3367 29.0935 17.8222C29.0935 14.3077 26.3438 11.4485 22.9639 11.4485ZM22.9639 22.9682C20.2351 22.9682 18.015 20.6597 18.015 17.8222C18.015 14.9846 20.2351 12.6762 22.9639 12.6762C25.6928 12.6762 27.9129 14.9847 27.9129 17.8222C27.9129 20.6598 25.6928 22.9682 22.9639 22.9682Z" fill="#FF6F00" fill-opacity="0.62"/>
</svg>
