<svg width="463" height="474" viewBox="0 0 463 474" fill="none" xmlns="http://www.w3.org/2000/svg">
<path d="M229.722 19.6582C321.168 19.6582 394.157 87.4325 394.157 169.693C394.157 238.076 352.568 309.503 309.764 364.652C288.5 392.05 267.219 415.076 251.249 431.254C243.269 439.338 236.626 445.701 231.989 450.033C231.162 450.806 230.398 451.515 229.702 452.157C229.012 451.524 228.254 450.827 227.434 450.066C222.799 445.767 216.158 439.449 208.178 431.415C192.211 415.338 170.933 392.433 149.673 365.118C106.884 310.143 65.2867 238.713 65.2867 169.693C65.2867 87.4325 138.275 19.6582 229.722 19.6582Z" fill="#FFDAB8" fill-opacity="0.96" stroke="#FE7000" stroke-width="15"/>
<path d="M324.609 187.197C324.609 240.749 282.001 283.932 229.722 283.932C177.443 283.932 134.834 240.749 134.834 187.197C134.834 133.644 177.443 90.4612 229.722 90.4612C282.001 90.4612 324.609 133.644 324.609 187.197Z" fill="white" stroke="#FE7000" stroke-width="15"/>
<path d="M328.95 75.6016C315.902 75.6016 305.023 83.3982 304.098 93.4525L297.444 165.239C297.148 168.369 298.545 171.47 301.319 173.765C304.084 176.059 307.96 177.389 312.017 177.389H312.408L310.134 233.597C310.034 236.002 311.206 238.267 313.375 239.987C315.54 241.718 318.519 242.62 321.632 242.62H331.176C337.526 242.62 342.822 238.757 342.822 233.844V86.2598C342.822 80.3746 336.572 75.6016 328.95 75.6016Z" fill="#FF6F00"/>
<path d="M161.418 77.8259H160.445C158.124 77.8259 156.341 79.1702 156.341 80.9711V112.607C156.341 115.413 153.294 117.708 149.667 117.708H148.689C145.062 117.708 141.987 115.413 141.987 112.607V80.9711C141.987 79.1739 140.237 77.8259 137.911 77.8259H136.924C134.598 77.8259 132.748 79.1702 132.748 80.9711V112.607C132.748 115.413 129.773 117.708 126.141 117.708H125.168C121.54 117.708 118.728 115.413 118.728 112.607V80.9711C118.728 79.1739 116.711 77.8259 114.385 77.8259H113.408C111.086 77.8259 109.155 79.1702 109.155 80.9711V128.823C109.155 134.708 115.367 139.363 122.985 139.363H124.825L120.935 235.681C120.835 238.086 122.003 240.362 124.172 242.089C126.336 243.817 129.32 244.734 132.438 244.734H141.61C144.718 244.734 147.703 243.817 149.872 242.089C152.041 240.359 153.204 238.057 153.113 235.652L149.223 139.359H151.845C159.468 139.359 165.575 134.701 165.575 128.819V80.9674C165.565 79.1665 163.754 77.8259 161.418 77.8259Z" fill="#FF6F00"/>
<path d="M302.639 107.647C283.217 87.2084 257.392 75.9524 229.925 75.9524C202.457 75.9524 176.633 87.208 157.21 107.647C137.788 128.085 127.091 155.259 127.091 184.163C127.091 213.067 137.788 240.242 157.21 260.68C176.633 281.118 202.457 292.374 229.925 292.374C257.393 292.374 283.217 281.117 302.639 260.679C322.061 240.241 332.758 213.067 332.758 184.163C332.758 155.259 322.061 128.085 302.639 107.647ZM293.999 251.588C276.885 269.597 254.129 279.516 229.925 279.516C205.72 279.516 182.964 269.598 165.85 251.588C148.735 233.578 139.31 209.632 139.31 184.163C139.31 158.693 148.735 134.748 165.85 116.738C182.965 98.7286 205.72 88.8096 229.925 88.8096C254.129 88.8096 276.885 98.7282 293.999 116.738C311.114 134.747 320.54 158.693 320.54 184.163C320.54 209.632 311.114 233.578 293.999 251.588Z" fill="#FF6F00" fill-opacity="0.59"/>
<path d="M231.136 117.969C197.117 117.969 169.441 147.431 169.441 183.646C169.441 219.86 197.117 249.323 231.136 249.323C265.155 249.323 292.832 219.86 292.832 183.646C292.832 147.432 265.155 117.969 231.136 117.969ZM231.136 236.672C203.67 236.672 181.324 212.885 181.324 183.646C181.324 154.407 203.67 130.62 231.136 130.62C258.603 130.62 280.948 154.407 280.948 183.646C280.948 212.885 258.603 236.672 231.136 236.672Z" fill="#FF6F00" fill-opacity="0.62"/>
</svg>
